<svg width="223" height="91" viewBox="0 0 223 91" fill="none" xmlns="http://www.w3.org/2000/svg">
<rect x="1.21582" y="0.836426" width="220.5" height="88.5" stroke="#D9DCE5" stroke-width="1.5"/>
<path d="M74.1018 68.0864V56.8864H78.3258C79.4885 56.8864 80.3685 57.1584 80.9658 57.7024C81.5632 58.2464 81.8618 58.9291 81.8618 59.7504C81.8618 60.4651 81.6698 61.0358 81.2858 61.4624C80.9018 61.8784 80.4378 62.1611 79.8938 62.3104C80.3205 62.3958 80.6992 62.5664 81.0298 62.8224C81.3712 63.0784 81.6378 63.3984 81.8298 63.7824C82.0218 64.1664 82.1178 64.5824 82.1178 65.0304C82.1178 65.6064 81.9738 66.1291 81.6858 66.5984C81.4085 67.0571 80.9978 67.4198 80.4538 67.6864C79.9098 67.9531 79.2432 68.0864 78.4538 68.0864H74.1018ZM75.7978 61.6864H78.1178C78.7685 61.6864 79.2645 61.5371 79.6058 61.2384C79.9472 60.9291 80.1178 60.5078 80.1178 59.9744C80.1178 59.4518 79.9472 59.0358 79.6058 58.7264C79.2752 58.4171 78.7685 58.2624 78.0858 58.2624H75.7978V61.6864ZM75.7978 66.6944H78.2298C78.9125 66.6944 79.4405 66.5344 79.8138 66.2144C80.1978 65.8944 80.3898 65.4464 80.3898 64.8704C80.3898 64.2944 80.1925 63.8411 79.7978 63.5104C79.4032 63.1691 78.8698 62.9984 78.1978 62.9984H75.7978V66.6944ZM87.6248 68.2784C86.8462 68.2784 86.1528 68.1078 85.5448 67.7664C84.9475 67.4144 84.4782 66.9291 84.1368 66.3104C83.7955 65.6918 83.6248 64.9718 83.6248 64.1504C83.6248 63.3184 83.7902 62.5878 84.1208 61.9584C84.4622 61.3291 84.9315 60.8384 85.5288 60.4864C86.1368 60.1344 86.8408 59.9584 87.6408 59.9584C88.4195 59.9584 89.0968 60.1344 89.6728 60.4864C90.2488 60.8278 90.6968 61.2864 91.0168 61.8624C91.3368 62.4384 91.4968 63.0731 91.4968 63.7664C91.4968 63.8731 91.4915 63.9904 91.4808 64.1184C91.4808 64.2358 91.4755 64.3691 91.4648 64.5184H85.2888C85.3422 65.2864 85.5928 65.8731 86.0408 66.2784C86.4995 66.6731 87.0275 66.8704 87.6248 66.8704C88.1048 66.8704 88.5048 66.7638 88.8248 66.5504C89.1555 66.3264 89.4008 66.0278 89.5608 65.6544H91.2568C91.0435 66.4011 90.6168 67.0251 89.9768 67.5264C89.3475 68.0278 88.5635 68.2784 87.6248 68.2784ZM87.6248 61.3504C87.0595 61.3504 86.5582 61.5211 86.1208 61.8624C85.6835 62.1931 85.4168 62.6944 85.3208 63.3664H89.8008C89.7688 62.7478 89.5502 62.2571 89.1448 61.8944C88.7395 61.5318 88.2328 61.3504 87.6248 61.3504ZM96.8726 68.2784C96.1046 68.2784 95.4272 68.0971 94.8406 67.7344C94.2539 67.3718 93.7952 66.8758 93.4646 66.2464C93.1339 65.6171 92.9686 64.9024 92.9686 64.1024C92.9686 63.3024 93.1339 62.5931 93.4646 61.9744C93.7952 61.3451 94.2539 60.8544 94.8406 60.5024C95.4379 60.1398 96.1206 59.9584 96.8886 59.9584C97.5179 59.9584 98.0672 60.0811 98.5366 60.3264C99.0166 60.5718 99.3899 60.9184 99.6566 61.3664V56.5664H101.353V68.0864H99.8326L99.6566 66.8544C99.4006 67.2278 99.0486 67.5584 98.6006 67.8464C98.1526 68.1344 97.5766 68.2784 96.8726 68.2784ZM97.1766 66.8064C97.9019 66.8064 98.4939 66.5558 98.9526 66.0544C99.4219 65.5531 99.6566 64.9078 99.6566 64.1184C99.6566 63.3184 99.4219 62.6731 98.9526 62.1824C98.4939 61.6811 97.9019 61.4304 97.1766 61.4304C96.4512 61.4304 95.8539 61.6811 95.3846 62.1824C94.9152 62.6731 94.6806 63.3184 94.6806 64.1184C94.6806 64.6411 94.7872 65.1051 95.0006 65.5104C95.2139 65.9158 95.5072 66.2358 95.8806 66.4704C96.2646 66.6944 96.6966 66.8064 97.1766 66.8064ZM107.586 68.0864V56.8864H111.442C112.328 56.8864 113.053 57.0358 113.618 57.3344C114.194 57.6331 114.621 58.0384 114.898 58.5504C115.176 59.0518 115.314 59.6118 115.314 60.2304C115.314 60.9238 115.128 61.5531 114.754 62.1184C114.392 62.6838 113.821 63.0891 113.042 63.3344L115.426 68.0864H113.458L111.282 63.5744H109.282V68.0864H107.586ZM109.282 62.2944H111.346C112.114 62.2944 112.674 62.1078 113.026 61.7344C113.389 61.3611 113.57 60.8758 113.57 60.2784C113.57 59.6811 113.394 59.2064 113.042 58.8544C112.69 58.4918 112.12 58.3104 111.33 58.3104H109.282V62.2944ZM120.484 68.2784C119.727 68.2784 119.044 68.1078 118.436 67.7664C117.839 67.4144 117.364 66.9291 117.012 66.3104C116.66 65.6811 116.484 64.9504 116.484 64.1184C116.484 63.2864 116.66 62.5611 117.012 61.9424C117.375 61.3131 117.86 60.8278 118.468 60.4864C119.076 60.1344 119.754 59.9584 120.5 59.9584C121.258 59.9584 121.935 60.1344 122.532 60.4864C123.14 60.8278 123.62 61.3131 123.972 61.9424C124.335 62.5611 124.516 63.2864 124.516 64.1184C124.516 64.9504 124.335 65.6811 123.972 66.3104C123.62 66.9291 123.14 67.4144 122.532 67.7664C121.924 68.1078 121.242 68.2784 120.484 68.2784ZM120.484 66.8224C120.89 66.8224 121.263 66.7211 121.604 66.5184C121.956 66.3158 122.239 66.0171 122.452 65.6224C122.666 65.2171 122.772 64.7158 122.772 64.1184C122.772 63.5211 122.666 63.0251 122.452 62.6304C122.25 62.2251 121.972 61.9211 121.62 61.7184C121.279 61.5158 120.906 61.4144 120.5 61.4144C120.095 61.4144 119.716 61.5158 119.364 61.7184C119.023 61.9211 118.746 62.2251 118.532 62.6304C118.319 63.0251 118.212 63.5211 118.212 64.1184C118.212 64.7158 118.319 65.2171 118.532 65.6224C118.746 66.0171 119.023 66.3158 119.364 66.5184C119.706 66.7211 120.079 66.8224 120.484 66.8224ZM130.062 68.2784C129.305 68.2784 128.622 68.1078 128.014 67.7664C127.417 67.4144 126.942 66.9291 126.59 66.3104C126.238 65.6811 126.062 64.9504 126.062 64.1184C126.062 63.2864 126.238 62.5611 126.59 61.9424C126.953 61.3131 127.438 60.8278 128.046 60.4864C128.654 60.1344 129.332 59.9584 130.078 59.9584C130.836 59.9584 131.513 60.1344 132.11 60.4864C132.718 60.8278 133.198 61.3131 133.55 61.9424C133.913 62.5611 134.094 63.2864 134.094 64.1184C134.094 64.9504 133.913 65.6811 133.55 66.3104C133.198 66.9291 132.718 67.4144 132.11 67.7664C131.502 68.1078 130.82 68.2784 130.062 68.2784ZM130.062 66.8224C130.468 66.8224 130.841 66.7211 131.182 66.5184C131.534 66.3158 131.817 66.0171 132.03 65.6224C132.244 65.2171 132.35 64.7158 132.35 64.1184C132.35 63.5211 132.244 63.0251 132.03 62.6304C131.828 62.2251 131.55 61.9211 131.198 61.7184C130.857 61.5158 130.484 61.4144 130.078 61.4144C129.673 61.4144 129.294 61.5158 128.942 61.7184C128.601 61.9211 128.324 62.2251 128.11 62.6304C127.897 63.0251 127.79 63.5211 127.79 64.1184C127.79 64.7158 127.897 65.2171 128.11 65.6224C128.324 66.0171 128.601 66.3158 128.942 66.5184C129.284 66.7211 129.657 66.8224 130.062 66.8224ZM135.928 68.0864V60.1504H137.432L137.576 61.2704C137.832 60.8651 138.168 60.5451 138.584 60.3104C139.011 60.0758 139.502 59.9584 140.056 59.9584C141.315 59.9584 142.19 60.4544 142.68 61.4464C142.968 60.9878 143.352 60.6251 143.832 60.3584C144.323 60.0918 144.851 59.9584 145.416 59.9584C146.408 59.9584 147.187 60.2571 147.752 60.8544C148.318 61.4518 148.6 62.3424 148.6 63.5264V68.0864H146.904V63.7024C146.904 62.1664 146.318 61.3984 145.144 61.3984C144.547 61.3984 144.056 61.6224 143.672 62.0704C143.299 62.5184 143.112 63.1584 143.112 63.9904V68.0864H141.416V63.7024C141.416 62.1664 140.824 61.3984 139.64 61.3984C139.054 61.3984 138.568 61.6224 138.184 62.0704C137.811 62.5184 137.624 63.1584 137.624 63.9904V68.0864H135.928Z" fill="#808080"/>
<g clip-path="url(#clip0_13882_247)">
<path d="M101.458 30.5139H121.474C122.299 30.5139 122.968 29.8451 122.968 29.0201C122.968 28.1951 122.299 27.5264 121.474 27.5264H101.458C100.633 27.5264 99.9639 28.1951 99.9639 29.0201C99.9638 29.8451 100.633 30.5139 101.458 30.5139Z" fill="#666666"/>
<path d="M112.96 24.3043C112.524 24.3043 112.169 24.659 112.169 25.095V26.12H118.288V25.095C118.288 24.659 117.933 24.3043 117.497 24.3043H112.96Z" fill="#666666"/>
<path d="M103.237 25.0951C103.237 23.8837 104.223 22.8982 105.434 22.8982H109.972C110.548 22.8982 111.073 23.1217 111.466 23.4862C111.858 23.1217 112.383 22.8982 112.959 22.8982H117.497C118.709 22.8982 119.694 23.8837 119.694 25.0951V26.1201H121.976V21.277C121.976 20.452 121.308 19.7832 120.483 19.7832H102.449C101.624 19.7832 100.955 20.452 100.955 21.277V26.1201H103.237V25.0951Z" fill="#666666"/>
<path d="M105.434 24.3043C104.998 24.3043 104.644 24.659 104.644 25.095V26.12H110.763V25.095C110.763 24.659 110.408 24.3043 109.972 24.3043H105.434Z" fill="#666666"/>
<path d="M99.4658 31.92V38.3896H100.872V35.8257H122.06V38.3896H123.466V31.92H99.4658Z" fill="#666666"/>
</g>
<defs>
<clipPath id="clip0_13882_247">
<rect width="24" height="24" fill="white" transform="translate(99.4658 17.0864)"/>
</clipPath>
</defs>
</svg>
