<svg width="223" height="91" viewBox="0 0 223 91" fill="none" xmlns="http://www.w3.org/2000/svg">
<rect x="1.21582" y="1.41943" width="220.5" height="88.5" stroke="#D9DCE5" stroke-width="1.5"/>
<path d="M65.1018 69.8179V58.6179H68.7338C70.0458 58.6179 71.1232 58.8472 71.9658 59.3059C72.8192 59.7645 73.4485 60.4152 73.8538 61.2579C74.2698 62.0899 74.4778 63.0819 74.4778 64.2339C74.4778 65.3752 74.2698 66.3672 73.8538 67.2099C73.4485 68.0419 72.8192 68.6872 71.9658 69.1459C71.1232 69.5939 70.0458 69.8179 68.7338 69.8179H65.1018ZM66.7978 68.3779H68.6698C69.6832 68.3779 70.4832 68.2125 71.0698 67.8819C71.6672 67.5512 72.0938 67.0765 72.3498 66.4579C72.6165 65.8392 72.7498 65.0979 72.7498 64.2339C72.7498 63.3699 72.6165 62.6232 72.3498 61.9939C72.0938 61.3645 71.6672 60.8845 71.0698 60.5539C70.4832 60.2125 69.6832 60.0419 68.6698 60.0419H66.7978V68.3779ZM77.2478 60.3779C76.9278 60.3779 76.6612 60.2819 76.4478 60.0899C76.2452 59.8872 76.1438 59.6365 76.1438 59.3379C76.1438 59.0392 76.2452 58.7939 76.4478 58.6019C76.6612 58.3992 76.9278 58.2979 77.2478 58.2979C77.5678 58.2979 77.8292 58.3992 78.0318 58.6019C78.2452 58.7939 78.3518 59.0392 78.3518 59.3379C78.3518 59.6365 78.2452 59.8872 78.0318 60.0899C77.8292 60.2819 77.5678 60.3779 77.2478 60.3779ZM76.3998 69.8179V61.8819H78.0958V69.8179H76.3998ZM80.3347 69.8179V61.8819H81.8387L81.9667 63.2739C82.212 62.7832 82.5694 62.3992 83.0387 62.1219C83.5187 61.8339 84.068 61.6899 84.6867 61.6899C85.6467 61.6899 86.3987 61.9885 86.9427 62.5859C87.4974 63.1832 87.7747 64.0739 87.7747 65.2579V69.8179H86.0947V65.4339C86.0947 63.8979 85.4654 63.1299 84.2067 63.1299C83.5774 63.1299 83.0547 63.3539 82.6387 63.8019C82.2334 64.2499 82.0307 64.8899 82.0307 65.7219V69.8179H80.3347ZM90.7322 60.3779C90.4122 60.3779 90.1455 60.2819 89.9322 60.0899C89.7295 59.8872 89.6282 59.6365 89.6282 59.3379C89.6282 59.0392 89.7295 58.7939 89.9322 58.6019C90.1455 58.3992 90.4122 58.2979 90.7322 58.2979C91.0522 58.2979 91.3135 58.3992 91.5162 58.6019C91.7295 58.7939 91.8362 59.0392 91.8362 59.3379C91.8362 59.6365 91.7295 59.8872 91.5162 60.0899C91.3135 60.2819 91.0522 60.3779 90.7322 60.3779ZM89.8842 69.8179V61.8819H91.5802V69.8179H89.8842ZM93.8191 69.8179V61.8819H95.3231L95.4511 63.2739C95.6964 62.7832 96.0537 62.3992 96.5231 62.1219C97.0031 61.8339 97.5524 61.6899 98.1711 61.6899C99.1311 61.6899 99.8831 61.9885 100.427 62.5859C100.982 63.1832 101.259 64.0739 101.259 65.2579V69.8179H99.5791V65.4339C99.5791 63.8979 98.9497 63.1299 97.6911 63.1299C97.0617 63.1299 96.5391 63.3539 96.1231 63.8019C95.7177 64.2499 95.5151 64.8899 95.5151 65.7219V69.8179H93.8191ZM106.505 67.3859C106.089 67.3859 105.705 67.3379 105.353 67.2419L104.665 67.9139C104.782 67.9885 104.926 68.0525 105.097 68.1059C105.267 68.1592 105.507 68.2072 105.817 68.2499C106.126 68.2925 106.547 68.3352 107.081 68.3779C108.137 68.4739 108.899 68.7299 109.369 69.1459C109.838 69.5512 110.073 70.0952 110.073 70.7779C110.073 71.2472 109.945 71.6899 109.689 72.1059C109.443 72.5325 109.054 72.8739 108.521 73.1299C107.998 73.3965 107.326 73.5299 106.505 73.5299C105.395 73.5299 104.494 73.3165 103.801 72.8899C103.118 72.4739 102.777 71.8392 102.777 70.9859C102.777 70.6552 102.862 70.3245 103.033 69.9939C103.214 69.6739 103.497 69.3699 103.881 69.0819C103.657 68.9859 103.459 68.8845 103.289 68.7779C103.129 68.6605 102.985 68.5432 102.857 68.4259V68.0419L104.233 66.6339C103.614 66.1005 103.305 65.4019 103.305 64.5379C103.305 64.0152 103.427 63.5405 103.673 63.1139C103.929 62.6765 104.297 62.3299 104.777 62.0739C105.257 61.8179 105.833 61.6899 106.505 61.6899C106.953 61.6899 107.369 61.7539 107.753 61.8819H110.713V63.0019L109.305 63.0819C109.561 63.5192 109.689 64.0045 109.689 64.5379C109.689 65.0712 109.561 65.5512 109.305 65.9779C109.059 66.4045 108.697 66.7459 108.217 67.0019C107.747 67.2579 107.177 67.3859 106.505 67.3859ZM106.505 66.0579C106.995 66.0579 107.39 65.9299 107.689 65.6739C107.998 65.4072 108.153 65.0339 108.153 64.5539C108.153 64.0632 107.998 63.6899 107.689 63.4339C107.39 63.1779 106.995 63.0499 106.505 63.0499C106.003 63.0499 105.598 63.1779 105.289 63.4339C104.99 63.6899 104.841 64.0632 104.841 64.5539C104.841 65.0339 104.99 65.4072 105.289 65.6739C105.598 65.9299 106.003 66.0579 106.505 66.0579ZM104.377 70.8259C104.377 71.2845 104.579 71.6259 104.985 71.8499C105.39 72.0845 105.897 72.2019 106.505 72.2019C107.091 72.2019 107.566 72.0739 107.929 71.8179C108.291 71.5725 108.473 71.2419 108.473 70.8259C108.473 70.5165 108.35 70.2499 108.105 70.0259C107.859 69.8125 107.395 69.6792 106.713 69.6259C106.201 69.5939 105.747 69.5459 105.353 69.4819C104.979 69.6845 104.723 69.9032 104.585 70.1379C104.446 70.3725 104.377 70.6019 104.377 70.8259ZM116.321 69.8179V58.6179H120.177C121.062 58.6179 121.787 58.7672 122.353 59.0659C122.929 59.3645 123.355 59.7699 123.633 60.2819C123.91 60.7832 124.049 61.3432 124.049 61.9619C124.049 62.6552 123.862 63.2845 123.489 63.8499C123.126 64.4152 122.555 64.8205 121.777 65.0659L124.161 69.8179H122.193L120.017 65.3059H118.017V69.8179H116.321ZM118.017 64.0259H120.081C120.849 64.0259 121.409 63.8392 121.761 63.4659C122.123 63.0925 122.305 62.6072 122.305 62.0099C122.305 61.4125 122.129 60.9379 121.777 60.5859C121.425 60.2232 120.854 60.0419 120.065 60.0419H118.017V64.0259ZM129.219 70.0099C128.461 70.0099 127.779 69.8392 127.171 69.4979C126.573 69.1459 126.099 68.6605 125.747 68.0419C125.395 67.4125 125.219 66.6819 125.219 65.8499C125.219 65.0179 125.395 64.2925 125.747 63.6739C126.109 63.0445 126.595 62.5592 127.203 62.2179C127.811 61.8659 128.488 61.6899 129.235 61.6899C129.992 61.6899 130.669 61.8659 131.267 62.2179C131.875 62.5592 132.355 63.0445 132.707 63.6739C133.069 64.2925 133.251 65.0179 133.251 65.8499C133.251 66.6819 133.069 67.4125 132.707 68.0419C132.355 68.6605 131.875 69.1459 131.267 69.4979C130.659 69.8392 129.976 70.0099 129.219 70.0099ZM129.219 68.5539C129.624 68.5539 129.997 68.4525 130.339 68.2499C130.691 68.0472 130.973 67.7485 131.187 67.3539C131.4 66.9485 131.507 66.4472 131.507 65.8499C131.507 65.2525 131.4 64.7565 131.187 64.3619C130.984 63.9565 130.707 63.6525 130.355 63.4499C130.013 63.2472 129.64 63.1459 129.235 63.1459C128.829 63.1459 128.451 63.2472 128.099 63.4499C127.757 63.6525 127.48 63.9565 127.267 64.3619C127.053 64.7565 126.947 65.2525 126.947 65.8499C126.947 66.4472 127.053 66.9485 127.267 67.3539C127.48 67.7485 127.757 68.0472 128.099 68.2499C128.44 68.4525 128.813 68.5539 129.219 68.5539ZM138.797 70.0099C138.039 70.0099 137.357 69.8392 136.749 69.4979C136.151 69.1459 135.677 68.6605 135.325 68.0419C134.973 67.4125 134.797 66.6819 134.797 65.8499C134.797 65.0179 134.973 64.2925 135.325 63.6739C135.687 63.0445 136.173 62.5592 136.781 62.2179C137.389 61.8659 138.066 61.6899 138.813 61.6899C139.57 61.6899 140.247 61.8659 140.845 62.2179C141.453 62.5592 141.933 63.0445 142.285 63.6739C142.647 64.2925 142.829 65.0179 142.829 65.8499C142.829 66.6819 142.647 67.4125 142.285 68.0419C141.933 68.6605 141.453 69.1459 140.845 69.4979C140.237 69.8392 139.554 70.0099 138.797 70.0099ZM138.797 68.5539C139.202 68.5539 139.575 68.4525 139.917 68.2499C140.269 68.0472 140.551 67.7485 140.765 67.3539C140.978 66.9485 141.085 66.4472 141.085 65.8499C141.085 65.2525 140.978 64.7565 140.765 64.3619C140.562 63.9565 140.285 63.6525 139.933 63.4499C139.591 63.2472 139.218 63.1459 138.813 63.1459C138.407 63.1459 138.029 63.2472 137.677 63.4499C137.335 63.6525 137.058 63.9565 136.845 64.3619C136.631 64.7565 136.525 65.2525 136.525 65.8499C136.525 66.4472 136.631 66.9485 136.845 67.3539C137.058 67.7485 137.335 68.0472 137.677 68.2499C138.018 68.4525 138.391 68.5539 138.797 68.5539ZM144.663 69.8179V61.8819H146.167L146.311 63.0019C146.567 62.5965 146.903 62.2765 147.319 62.0419C147.745 61.8072 148.236 61.6899 148.791 61.6899C150.049 61.6899 150.924 62.1859 151.415 63.1779C151.703 62.7192 152.087 62.3565 152.567 62.0899C153.057 61.8232 153.585 61.6899 154.151 61.6899C155.143 61.6899 155.921 61.9885 156.487 62.5859C157.052 63.1832 157.335 64.0739 157.335 65.2579V69.8179H155.639V65.4339C155.639 63.8979 155.052 63.1299 153.879 63.1299C153.281 63.1299 152.791 63.3539 152.407 63.8019C152.033 64.2499 151.847 64.8899 151.847 65.7219V69.8179H150.151V65.4339C150.151 63.8979 149.559 63.1299 148.375 63.1299C147.788 63.1299 147.303 63.3539 146.919 63.8019C146.545 64.2499 146.359 64.8899 146.359 65.7219V69.8179H144.663Z" fill="#808080"/>
<g clip-path="url(#clip0_13882_225)">
<path d="M119.087 26.3105C119.368 26.3105 119.596 26.0828 119.596 25.8019V24.1704C119.596 23.8896 119.368 23.6619 119.087 23.6619L118.364 23.6663L115.988 26.3105H119.087Z" fill="#666666"/>
<path d="M103.843 26.3103H106.966L104.55 23.6617H103.843C103.562 23.6617 103.334 23.8894 103.334 24.1703V25.8017C103.334 26.0826 103.562 26.3103 103.843 26.3103Z" fill="#666666"/>
<path d="M111.756 28.9331L116.47 23.6619H106.46L111.251 28.9351C111.386 29.0846 111.622 29.0836 111.756 28.9331Z" fill="#666666"/>
<path d="M113.083 36.3511H112.207V30.4324C111.997 30.5537 111.757 30.6199 111.51 30.6209C111.508 30.6209 111.506 30.6209 111.504 30.6209C111.255 30.6209 111.013 30.5546 110.801 30.4324V36.3511H109.846C109.457 36.3511 109.143 36.6659 109.143 37.0542C109.143 37.4426 109.457 37.7574 109.846 37.7574H113.083C113.471 37.7574 113.786 37.4426 113.786 37.0542C113.786 36.6659 113.471 36.3511 113.083 36.3511Z" fill="#666666"/>
<path d="M105.396 28.2667H100.872V19.9316C100.872 19.5432 100.557 19.2284 100.169 19.2284C99.7807 19.2284 99.4658 19.5432 99.4658 19.9316V37.1105C99.4658 37.4988 99.7807 37.8137 100.169 37.8137C100.557 37.8137 100.872 37.4988 100.872 37.1105V31.8581H105.985V37.1105C105.985 37.4988 106.3 37.8137 106.688 37.8137C107.076 37.8137 107.391 37.4988 107.391 37.1105V30.2624C107.391 29.162 106.496 28.2667 105.396 28.2667Z" fill="#666666"/>
<path d="M122.762 19.2284C122.374 19.2284 122.059 19.5432 122.059 19.9316V28.2667H117.64C116.54 28.2667 115.645 29.162 115.645 30.2624V37.1105C115.645 37.4988 115.959 37.8137 116.348 37.8137C116.736 37.8137 117.051 37.4988 117.051 37.1105V31.857H122.059V37.1105C122.059 37.4988 122.374 37.8137 122.762 37.8137C123.15 37.8137 123.465 37.4988 123.465 37.1105V19.9316C123.465 19.5432 123.15 19.2284 122.762 19.2284Z" fill="#666666"/>
</g>
<defs>
<clipPath id="clip0_13882_225">
<rect width="24" height="24" fill="white" transform="translate(99.4658 16.521)"/>
</clipPath>
</defs>
</svg>
