<svg width="223" height="91" viewBox="0 0 223 91" fill="none" xmlns="http://www.w3.org/2000/svg">
<rect x="0.46582" y="0.669434" width="222" height="90" fill="#154444"/>
<g clip-path="url(#clip0_13882_238)">
<path d="M123.466 24.2028V19.5153C123.466 18.6106 122.73 17.8746 121.825 17.8746H113.388C112.483 17.8746 111.747 18.6106 111.747 19.5153V24.2028C111.747 25.1074 112.483 25.8434 113.388 25.8434H115.3L114.948 27.2496H111.013L110.87 24.107C110.819 22.9779 109.893 22.0934 108.763 22.0934H104.888C103.758 22.0934 102.832 22.9779 102.781 24.107L102.638 27.2496H100.169C99.7806 27.2496 99.4658 27.5644 99.4658 27.9528V40.1403C99.4658 40.5286 99.7806 40.8434 100.169 40.8434C100.557 40.8434 100.872 40.5286 100.872 40.1403V31.4684H102.47C102.521 32.0472 102.764 32.5869 103.173 33.0152C103.59 33.4506 104.129 33.7196 104.716 33.7917V34.984C104.716 35.8091 105.328 36.4935 106.122 36.6076V38.2974L103.351 39.0892C103.049 39.1754 102.841 39.4513 102.841 39.7653V41.1715C102.841 41.5598 103.156 41.8746 103.544 41.8746C103.932 41.8746 104.247 41.5598 104.247 41.1715V40.2956L106.122 39.7599V40.7028C106.122 41.0911 106.437 41.4059 106.825 41.4059C107.214 41.4059 107.528 41.0911 107.528 40.7028V39.7599L109.403 40.2957V41.1715C109.403 41.5598 109.718 41.8746 110.106 41.8746C110.495 41.8746 110.81 41.5598 110.81 41.1715V39.7653C110.81 39.4513 110.601 39.1754 110.3 39.0892L107.528 38.2974V36.6077C108.322 36.4936 108.935 35.8091 108.935 34.9841V33.7918C109.522 33.7196 110.061 33.4507 110.477 33.0152C110.886 32.587 111.129 32.0473 111.18 31.4684H112.685V40.1403C112.685 40.5286 112.999 40.8434 113.388 40.8434C113.776 40.8434 114.091 40.5286 114.091 40.1403V38.0309H122.06V40.1403C122.06 40.5286 122.374 40.8434 122.763 40.8434C123.151 40.8434 123.466 40.5286 123.466 40.1403V27.9528C123.466 27.5644 123.151 27.2496 122.763 27.2496H120.265L119.913 25.8434H121.825C122.73 25.8434 123.466 25.1074 123.466 24.2028ZM102.51 30.0621H100.872V28.6559H102.574L102.51 30.0621ZM107.528 34.984C107.528 35.1132 107.423 35.2184 107.294 35.2184H106.356C106.227 35.2184 106.122 35.1132 106.122 34.984V33.8121H107.528V34.984ZM109.46 32.0436C109.237 32.2772 108.936 32.4059 108.613 32.4059H105.037C104.714 32.4059 104.413 32.2772 104.19 32.0436C103.967 31.81 103.852 31.5035 103.867 31.1808L104.185 24.1708C104.202 23.7945 104.511 23.4996 104.888 23.4996H108.763C109.139 23.4996 109.448 23.7945 109.465 24.1708L109.784 31.1808C109.798 31.5036 109.684 31.81 109.46 32.0436ZM122.06 36.6246H114.091V31.4684H122.06V36.6246ZM122.06 28.6559V30.0621H111.141L111.077 28.6559H122.06ZM116.398 27.2496L116.749 25.8434H118.464L118.815 27.2496H116.398ZM113.388 24.4371C113.258 24.4371 113.153 24.332 113.153 24.2028V19.5153C113.153 19.386 113.258 19.2809 113.388 19.2809H121.825C121.954 19.2809 122.06 19.386 122.06 19.5153V24.2028C122.06 24.332 121.954 24.4371 121.825 24.4371H113.388Z" fill="white"/>
<path d="M116.669 34.2809H119.481C119.87 34.2809 120.185 33.9661 120.185 33.5778C120.185 33.1894 119.87 32.8746 119.481 32.8746H116.669C116.281 32.8746 115.966 33.1894 115.966 33.5778C115.966 33.9661 116.281 34.2809 116.669 34.2809Z" fill="white"/>
</g>
<path d="M94.2698 68.6562C93.1605 68.6562 92.1898 68.4109 91.3578 67.9202C90.5258 67.4296 89.8752 66.7522 89.4058 65.8882C88.9365 65.0136 88.7018 64.0056 88.7018 62.8642C88.7018 61.7229 88.9365 60.7202 89.4058 59.8562C89.8752 58.9816 90.5258 58.2989 91.3578 57.8082C92.1898 57.3176 93.1605 57.0722 94.2698 57.0722C95.3792 57.0722 96.3498 57.3176 97.1818 57.8082C98.0138 58.2989 98.6592 58.9816 99.1178 59.8562C99.5872 60.7202 99.8218 61.7229 99.8218 62.8642C99.8218 64.0056 99.5872 65.0136 99.1178 65.8882C98.6592 66.7522 98.0138 67.4296 97.1818 67.9202C96.3498 68.4109 95.3792 68.6562 94.2698 68.6562ZM94.2698 67.1362C95.0378 67.1362 95.7045 66.9656 96.2698 66.6242C96.8458 66.2829 97.2938 65.7922 97.6138 65.1522C97.9338 64.5122 98.0938 63.7496 98.0938 62.8642C98.0938 61.9789 97.9338 61.2162 97.6138 60.5762C97.2938 59.9362 96.8458 59.4456 96.2698 59.1042C95.7045 58.7629 95.0378 58.5922 94.2698 58.5922C93.5018 58.5922 92.8298 58.7629 92.2538 59.1042C91.6778 59.4456 91.2298 59.9362 90.9098 60.5762C90.6005 61.2162 90.4458 61.9789 90.4458 62.8642C90.4458 63.7496 90.6005 64.5122 90.9098 65.1522C91.2298 65.7922 91.6778 66.2829 92.2538 66.6242C92.8298 66.9656 93.5018 67.1362 94.2698 67.1362ZM102.047 68.4642V61.9522H100.911V60.5282H102.047V59.3762C102.047 58.5122 102.261 57.8936 102.687 57.5202C103.125 57.1362 103.738 56.9442 104.527 56.9442H105.359V58.3842H104.783C104.41 58.3842 104.143 58.4642 103.983 58.6242C103.823 58.7736 103.743 59.0296 103.743 59.3922V60.5282H105.567V61.9522H103.743V68.4642H102.047ZM107.578 68.4642V61.9522H106.442V60.5282H107.578V59.3762C107.578 58.5122 107.792 57.8936 108.218 57.5202C108.656 57.1362 109.269 56.9442 110.058 56.9442H110.89V58.3842H110.314C109.941 58.3842 109.674 58.4642 109.514 58.6242C109.354 58.7736 109.274 59.0296 109.274 59.3922V60.5282H114.298V68.4642H112.602V61.9522H109.274V68.4642H107.578ZM113.466 59.2002C113.146 59.2002 112.88 59.1042 112.666 58.9122C112.464 58.7096 112.362 58.4536 112.362 58.1442C112.362 57.8456 112.464 57.6002 112.666 57.4082C112.88 57.2162 113.146 57.1202 113.466 57.1202C113.786 57.1202 114.048 57.2162 114.25 57.4082C114.464 57.6002 114.57 57.8456 114.57 58.1442C114.57 58.4536 114.464 58.7096 114.25 58.9122C114.048 59.1042 113.786 59.2002 113.466 59.2002ZM120.313 68.6562C119.535 68.6562 118.836 68.4802 118.217 68.1282C117.609 67.7762 117.129 67.2909 116.777 66.6722C116.436 66.0429 116.265 65.3176 116.265 64.4962C116.265 63.6749 116.436 62.9549 116.777 62.3362C117.129 61.7069 117.609 61.2162 118.217 60.8642C118.836 60.5122 119.535 60.3362 120.313 60.3362C121.295 60.3362 122.116 60.5922 122.777 61.1042C123.449 61.6162 123.881 62.3096 124.073 63.1842H122.297C122.191 62.7469 121.956 62.4056 121.593 62.1602C121.231 61.9149 120.804 61.7922 120.313 61.7922C119.897 61.7922 119.513 61.8989 119.161 62.1122C118.809 62.3149 118.527 62.6189 118.313 63.0242C118.1 63.4189 117.993 63.9096 117.993 64.4962C117.993 65.0829 118.1 65.5789 118.313 65.9842C118.527 66.3789 118.809 66.6829 119.161 66.8962C119.513 67.1096 119.897 67.2162 120.313 67.2162C120.804 67.2162 121.231 67.0936 121.593 66.8482C121.956 66.6029 122.191 66.2562 122.297 65.8082H124.073C123.892 66.6616 123.465 67.3496 122.793 67.8722C122.121 68.3949 121.295 68.6562 120.313 68.6562ZM129.625 68.6562C128.846 68.6562 128.153 68.4856 127.545 68.1442C126.947 67.7922 126.478 67.3069 126.137 66.6882C125.795 66.0696 125.625 65.3496 125.625 64.5282C125.625 63.6962 125.79 62.9656 126.121 62.3362C126.462 61.7069 126.931 61.2162 127.529 60.8642C128.137 60.5122 128.841 60.3362 129.641 60.3362C130.419 60.3362 131.097 60.5122 131.673 60.8642C132.249 61.2056 132.697 61.6642 133.017 62.2402C133.337 62.8162 133.497 63.4509 133.497 64.1442C133.497 64.2509 133.491 64.3682 133.481 64.4962C133.481 64.6136 133.475 64.7469 133.465 64.8962H127.289C127.342 65.6642 127.593 66.2509 128.041 66.6562C128.499 67.0509 129.027 67.2482 129.625 67.2482C130.105 67.2482 130.505 67.1416 130.825 66.9282C131.155 66.7042 131.401 66.4056 131.561 66.0322H133.257C133.043 66.7789 132.617 67.4029 131.977 67.9042C131.347 68.4056 130.563 68.6562 129.625 68.6562ZM129.625 61.7282C129.059 61.7282 128.558 61.8989 128.121 62.2402C127.683 62.5709 127.417 63.0722 127.321 63.7442H131.801C131.769 63.1256 131.55 62.6349 131.145 62.2722C130.739 61.9096 130.233 61.7282 129.625 61.7282Z" fill="white"/>
<defs>
<clipPath id="clip0_13882_238">
<rect width="24" height="24" fill="white" transform="translate(99.4658 17.8746)"/>
</clipPath>
</defs>
</svg>
